<?xml version="1.0" encoding="UTF-8" standalone="no"?>
<!-- Created with Inkscape (http://www.inkscape.org/) -->

<svg
   width="270.93335mm"
   height="270.93329mm"
   viewBox="0 0 270.93337 270.93327"
   version="1.1"
   id="svg1"
   xml:space="preserve"
   inkscape:version="1.4.3 (0d15f75042, 2025-12-25)"
   sodipodi:docname="crucible.svg"
   inkscape:export-filename="/home/roncofaber/Desktop/crucible_logo_web.svg"
   inkscape:export-xdpi="96"
   inkscape:export-ydpi="96"
   xmlns:inkscape="http://www.inkscape.org/namespaces/inkscape"
   xmlns:sodipodi="http://sodipodi.sourceforge.net/DTD/sodipodi-0.dtd"
   xmlns="http://www.w3.org/2000/svg"
   xmlns:svg="http://www.w3.org/2000/svg"><sodipodi:namedview
     id="namedview1"
     pagecolor="#ffffff"
     bordercolor="#000000"
     borderopacity="0.25"
     inkscape:showpageshadow="2"
     inkscape:pageopacity="0.0"
     inkscape:pagecheckerboard="0"
     inkscape:deskcolor="#d1d1d1"
     inkscape:document-units="mm"
     inkscape:zoom="0.3535534"
     inkscape:cx="1077.6307"
     inkscape:cy="601.04075"
     inkscape:window-width="2560"
     inkscape:window-height="1307"
     inkscape:window-x="0"
     inkscape:window-y="0"
     inkscape:window-maximized="1"
     inkscape:current-layer="layer2"><inkscape:page
       x="0"
       y="0"
       width="270.93335"
       height="270.93329"
       id="page2"
       margin="0"
       bleed="0" /></sodipodi:namedview><defs
     id="defs1"><inkscape:path-effect
       effect="fillet_chamfer"
       id="path-effect225-31-4-9-8"
       is_visible="true"
       lpeversion="1"
       nodesatellites_param="F,0,0,1,0,0,0,1 @ F,0,0,1,0,0,0,1 @ F,0,0,1,0,0,0,1 @ F,0,0,1,0,0.5954183,0,1 @ F,0,0,1,0,0,0,1 @ F,0,0,1,0,0,0,1 @ F,0,0,1,0,0,0,1 @ F,0,0,1,0,4.0197609,0,1 @ F,0,0,1,0,0,0,1 @ F,0,0,1,0,3.0026349,0,1 @ F,0,0,1,0,0,0,1 @ F,0,0,1,0,0.79717644,0,1 @ F,0,0,1,0,1.2321425,0,1 @ F,0,0,1,0,0,0,1 @ F,0,0,1,0,0,0,1 @ F,0,0,1,0,0,0,1"
       radius="0"
       unit="px"
       method="auto"
       mode="F"
       chamfer_steps="1"
       flexible="false"
       use_knot_distance="true"
       apply_no_radius="true"
       apply_with_radius="true"
       only_selected="false"
       hide_knots="false" /><inkscape:path-effect
       effect="fillet_chamfer"
       id="path-effect225-31-4-9-8-8"
       is_visible="true"
       lpeversion="1"
       nodesatellites_param="F,0,0,1,0,0,0,1 @ F,0,0,1,0,0,0,1 @ F,0,0,1,0,0,0,1 @ F,0,0,1,0,0.5954183,0,1 @ F,0,0,1,0,0,0,1 @ F,0,0,1,0,0,0,1 @ F,0,0,1,0,0,0,1 @ F,0,0,1,0,4.2917403,0,1 @ F,0,0,1,0,0,0,1 @ F,0,0,1,0,3.0026349,0,1 @ F,0,0,1,0,0,0,1 @ F,0,0,1,0,0.79717644,0,1 @ F,0,0,1,0,1.2321425,0,1 @ F,0,0,1,0,0,0,1 @ F,0,0,1,0,0,0,1 @ F,0,0,1,0,0,0,1"
       radius="0"
       unit="px"
       method="auto"
       mode="F"
       chamfer_steps="1"
       flexible="false"
       use_knot_distance="true"
       apply_no_radius="true"
       apply_with_radius="true"
       only_selected="false"
       hide_knots="false" /></defs><g
     inkscape:label="Logo"
     inkscape:groupmode="layer"
     id="layer1"
     transform="translate(280.70456,284.05042)"><rect
       style="display:inline;fill:#a8c4cd;fill-opacity:1;stroke:none;stroke-width:0.657222;stroke-linecap:round;stroke-linejoin:round;stroke-miterlimit:10;paint-order:markers stroke fill"
       id="rect225-8"
       width="270.93332"
       height="270.93332"
       x="-280.70456"
       y="-284.05042"
       inkscape:label="Background"
       ry="0" /><path
       style="fill:#031e2d;fill-opacity:1;stroke-width:1"
       d="m -132.96592,-106.09991 c -0.73559,-0.14651 -1.36931,-0.67121 -1.40831,-1.1658 -0.14933,-1.89481 0.22745,-7.14083 0.72185,-10.05429 0.51023,-3.00601 0.5518,-3.03862 3.59293,-2.81902 4.21176,0.30399 3.66365,1.05048 15.17447,-20.66466 l 4.33784,-8.18331 -7.8659,-13.36742 c -4.32623,-7.35209 -8.31753,-13.55438 -8.86959,-13.78289 -1.39606,-0.57794 -3.95278,0.87665 -12.55462,7.14266 l -7.44451,5.42295 h -10.00539 c -3.14404,0 -10.34292,2.56324 -12.09529,2.41493 -1.42592,-0.12069 1.11013,-1.92799 2.34457,-3.11183 1.44419,-1.13717 20.30278,-16.46867 26.8859,-20.97567 6.10261,-4.178 9.54376,-5.35552 14.31205,-4.89736 6.70971,0.64473 8.58797,2.74376 19.20744,21.46542 4.65711,8.21021 5.80665,9.74086 7.093918,9.44551 1.56648,-0.35939 16.797759,-5.57036 42.804622,-14.64447 7.98621,-2.78644 17.954738,-6.26029 22.15225,-7.7196 8.674484,-3.01578 10.80993,-2.92869 13.745932,0.56056 2.387458,2.83734 2.454312,5.32067 0.211762,7.86361 -1.793362,2.03355 -5.143823,3.2838 -49.393984,18.43163 -11.509501,3.93994 -21.062221,7.29941 -21.228243,7.46542 -0.165958,0.16598 2.200793,1.18419 5.25965,2.26251 8.265015,2.91367 50.51297,17.17482 57.31243,19.34627 6.640372,2.12069 8.241204,3.70448 8.241204,8.15346 0,3.88606 -3.087907,6.95947 -6.484139,6.45369 -1.972842,-0.29396 -35.587001,-11.54166 -65.478121,-21.91003 -4.902283,-1.70046 -9.078051,-3.09176 -9.279461,-3.09176 -0.20141,0 -3.01748,4.90062 -6.25786,10.89031 -6.0458,11.17522 -9.01073,15.10205 -12.9652,17.17144 -2.32198,1.21508 -9.68445,2.37287 -12.06818,1.89774 z"
       id="path817"
       inkscape:label="Thongs"
       sodipodi:nodetypes="scccscscscsscsssssssssscsscsscsss" /><path
       style="display:inline;fill:#a8c4cd;fill-opacity:1;stroke:none;stroke-width:0.706001;stroke-linecap:round;stroke-linejoin:round;stroke-miterlimit:10;paint-order:markers stroke fill"
       d="m -251.81474,-157.85583 c 1.96813,-4.54589 8.4216,-5.74182 13.29204,-6.64603 7.50638,-1.39355 16.62935,2.49043 22.79733,2.20743 8.40122,-0.38543 14.56266,-4.68737 22.97076,-4.50566 6.54182,0.14138 14.35377,4.39817 20.8958,4.52938 6.8115,0.13662 15.49517,-2.94772 22.28779,-2.42254 7.62532,0.58956 12.21443,0.66759 15.56147,6.54997 2.69387,4.7344 -5.99559,15.53422 -5.99559,15.53422 l -25.80221,16.4196 -52.38634,0.97735 -26.38862,-8.40527 c 0,0 -10.58236,-16.50101 -7.23243,-24.23845 z"
       id="path794-2-2-3"
       sodipodi:nodetypes="sasssssccccs"
       inkscape:label="Lava_aura" /><path
       style="fill:#a8c4cd;fill-opacity:1;stroke:none;stroke-width:0.852885"
       d="m -248.34141,230.73436 c -10.80127,-3.45358 -20.19388,-11.44279 -25.05013,-21.30725 -3.32026,-6.74437 -4.45601,-13.48044 -8.20433,-48.6585 l -2.62113,-24.59965 a 1.5152924,1.5152924 62.46616 0 0 -0.51236,-0.98281 l -2.781,-2.41871 c -2.45474,-2.13496 -3.35042,-3.72065 -3.7307,-6.60474 -0.44299,-3.35965 -0.18449,-4.11128 2.25296,-6.54866 a 9.8829726,9.8829726 158.65346 0 1 7.04514,-2.75338 h 50.46831 51.75741 a 6.8766184,6.8766184 23.588204 0 1 5.04365,2.20228 l 0.17401,0.18776 c 3.39635,3.66473 3.09912,8.08564 -0.83159,12.67674 -0.28633,0.33443 -0.77153,0.8582 -1.06992,1.18192 l -2.20083,2.38763 a 3.8030127,3.8030127 114.71693 0 0 -0.98024,2.12953 l -3.06209,25.81329 c -1.76396,14.87026 -3.81678,30.08533 -4.5618,33.8113 -3.45679,17.28799 -14.69597,29.66766 -30.72488,33.84266 -7.55484,1.96779 -23.72995,1.77661 -30.41048,-0.35941 z"
       id="path23-6-7-6-0-0"
       inkscape:path-effect="#path-effect225-31-4-9-8-8"
       inkscape:original-d="m -248.34141,230.73436 c -10.80127,-3.45358 -20.19388,-11.44279 -25.05013,-21.30725 -3.32026,-6.74437 -4.45601,-13.48044 -8.20433,-48.6585 l -2.68422,-25.19172 -3.23027,-2.80945 c -2.45474,-2.13496 -3.35042,-3.72065 -3.7307,-6.60474 -0.44299,-3.35965 -0.18449,-4.11128 2.25296,-6.54866 l 2.7534,-2.75338 h 54.76005 54.76004 l 2.21503,2.39004 c 3.54304,3.82301 3.06656,8.46893 -1.36122,13.27251 l -3.57622,3.87975 -3.20723,27.03685 c -1.76396,14.87026 -3.81678,30.08533 -4.5618,33.8113 -3.45679,17.28799 -14.69597,29.66766 -30.72488,33.84266 -7.55484,1.96779 -23.72995,1.77661 -30.41048,-0.35941 z"
       transform="matrix(1.1724882,0,0,1.1724882,78.335834,-296.54994)"
       inkscape:label="Crucible_aura" /><path
       style="display:inline;fill:#ff6600;fill-opacity:1;stroke:none;stroke-width:0.706001;stroke-linecap:round;stroke-linejoin:round;stroke-miterlimit:10;paint-order:markers stroke fill"
       d="m -248.84476,-154.16305 c 1.86802,-4.31465 7.99321,-5.44974 12.6159,-6.30795 7.12454,-1.32266 15.78343,2.36374 21.63766,2.09514 7.97386,-0.36583 13.82187,-4.44893 21.80226,-4.27646 6.20905,0.13418 13.62361,4.17444 19.83285,4.29897 6.46502,0.12966 14.70696,-2.79777 21.15404,-2.29931 7.23743,0.55957 11.59311,0.63363 14.76988,6.21678 2.55684,4.49357 -5.6906,14.74402 -5.6906,14.74402 l -24.48968,15.58435 -49.72151,0.92763 -25.04627,-7.9777 c 0,0 -10.04405,-15.66162 -6.86453,-23.00547 z"
       id="path794-2-2"
       sodipodi:nodetypes="sasssssccccs"
       inkscape:label="Lava" /><path
       style="fill:#031e2d;fill-opacity:1;stroke:none;stroke-width:0.898597"
       d="m -248.34141,230.73436 c -10.80127,-3.45358 -20.19388,-11.44279 -25.05013,-21.30725 -3.32026,-6.74437 -4.45601,-13.48044 -8.20433,-48.6585 l -2.62113,-24.59965 a 1.5152924,1.5152924 62.46616 0 0 -0.51236,-0.98281 l -2.781,-2.41871 c -2.45474,-2.13496 -3.35042,-3.72065 -3.7307,-6.60474 -0.44299,-3.35965 -0.18449,-4.11128 2.25296,-6.54866 a 9.5528678,9.5528678 157.8776 0 1 6.77316,-2.75338 h 50.74029 51.75741 a 6.8766184,6.8766184 23.588204 0 1 5.04365,2.20228 l 0.17401,0.18776 c 3.39635,3.66473 3.09912,8.08564 -0.83159,12.67674 -0.28633,0.33443 -0.77153,0.8582 -1.06992,1.18192 l -2.20083,2.38763 a 3.8030127,3.8030127 114.71693 0 0 -0.98024,2.12953 l -3.06209,25.81329 c -1.76396,14.87026 -3.81678,30.08533 -4.5618,33.8113 -3.45679,17.28799 -14.69597,29.66766 -30.72488,33.84266 -7.55484,1.96779 -23.72995,1.77661 -30.41048,-0.35941 z"
       id="path23-6-7-6-0"
       inkscape:path-effect="#path-effect225-31-4-9-8"
       inkscape:original-d="m -248.34141,230.73436 c -10.80127,-3.45358 -20.19388,-11.44279 -25.05013,-21.30725 -3.32026,-6.74437 -4.45601,-13.48044 -8.20433,-48.6585 l -2.68422,-25.19172 -3.23027,-2.80945 c -2.45474,-2.13496 -3.35042,-3.72065 -3.7307,-6.60474 -0.44299,-3.35965 -0.18449,-4.11128 2.25296,-6.54866 l 2.7534,-2.75338 h 54.76005 54.76004 l 2.21503,2.39004 c 3.54304,3.82301 3.06656,8.46893 -1.36122,13.27251 l -3.57622,3.87975 -3.20723,27.03685 c -1.76396,14.87026 -3.81678,30.08533 -4.5618,33.8113 -3.45679,17.28799 -14.69597,29.66766 -30.72488,33.84266 -7.55484,1.96779 -23.72995,1.77661 -30.41048,-0.35941 z"
       transform="matrix(1.1128443,0,0,1.1128443,64.511254,-286.30405)"
       inkscape:label="Crucible" /><path
       style="fill:#ff6600;fill-opacity:1;stroke-width:1"
       d="m -168.37744,-99.811862 c -1.57352,-0.587728 -3.28639,-1.887958 -4.14512,-3.146628 -2.08105,-3.05014 -1.99914,-6.79216 0.30596,-13.9762 2.41676,-7.53199 2.89581,-10.10954 2.90892,-15.65091 0.0109,-4.65696 -0.79572,-6.83179 -1.03378,-7.88066 -1.23607,-5.44589 -3.40112,-13.35452 -3.32014,-15.8944 0.0162,-0.50743 0.40844,-0.65906 0.73049,-0.67421 4.52323,-0.21285 5.52731,-0.23462 7.60312,-0.20547 4.74437,0.0666 7.38852,-0.19449 8.28243,0.38452 0.17581,0.11388 0.31826,0.33586 0.30631,0.60119 -0.10495,2.33037 -5.09664,10.39945 -5.12071,22.98392 -0.0137,6.78265 0.33024,8.90883 2.46327,15.26001 2.79781,8.33062 2.64496,12.51825 -0.58096,15.91694 -0.60838,0.64093 -1.65317,1.44777 -2.32176,1.79294 -1.42429,0.735326 -4.71062,0.999702 -6.07803,0.488936 z"
       id="path543-6-3-4"
       sodipodi:nodetypes="ssscsssssscsssss"
       inkscape:label="Lava drop" /><g
       id="g800"
       inkscape:label="Markers"
       transform="matrix(1.2923815,0,0,1.2923815,4.771314,55.821368)"
       style="stroke-width:0.773766"><rect
         style="fill:#e6e6e6;fill-opacity:1;stroke:none;stroke-width:23.2129;stroke-linecap:round;stroke-linejoin:round;stroke-miterlimit:10;stroke-dasharray:none;stroke-opacity:1;paint-order:markers stroke fill"
         id="rect799"
         width="24.177376"
         height="6.0443439"
         x="-190.35654"
         y="-131.80396"
         ry="3.022172"
         inkscape:label="grad3" /><rect
         style="fill:#e6e6e6;fill-opacity:1;stroke:none;stroke-width:23.2129;stroke-linecap:round;stroke-linejoin:round;stroke-miterlimit:10;stroke-dasharray:none;stroke-opacity:1;paint-order:markers stroke fill"
         id="rect799-8"
         width="24.177376"
         height="6.0443439"
         x="-187.71075"
         y="-117.92845"
         ry="3.022172"
         inkscape:label="grad2" /><rect
         style="fill:#e6e6e6;fill-opacity:1;stroke:none;stroke-width:23.2129;stroke-linecap:round;stroke-linejoin:round;stroke-miterlimit:10;stroke-dasharray:none;stroke-opacity:1;paint-order:markers stroke fill"
         id="rect799-1"
         width="24.177376"
         height="6.0443439"
         x="-185.06496"
         y="-104.05295"
         ry="3.022172"
         inkscape:label="grad1" /></g><g
       id="g798-5-4"
       transform="matrix(0.60020206,0,0,0.60020206,-70.9365,-24.529686)"
       style="stroke-width:1.66611"><circle
         style="fill:#031e2d;fill-opacity:1;stroke:none;stroke-width:49.9829;stroke-linecap:round;stroke-linejoin:round;stroke-miterlimit:10;stroke-dasharray:none;stroke-opacity:1;paint-order:markers stroke fill"
         id="path796-83-5-5-8-2"
         cx="-148.99706"
         cy="-355.62637"
         r="18.166237" /><path
         d="m -144.82758,-368.72535 v 26.19795 h -5.62916 v -19.8361 q -0.46463,0.41101 -1.10796,0.78629 -0.62547,0.35741 -1.34028,0.6612 -0.71481,0.28593 -1.48324,0.50037 -0.76843,0.19658 -1.51898,0.28593 v -4.75352 q 2.19805,-0.64333 4.14592,-1.64407 1.94787,-1.00074 3.52046,-2.19805 z"
         id="text798-3-6-9"
         style="font-weight:bold;font-size:36.5985px;font-family:'Segoe UI';-inkscape-font-specification:'Segoe UI Bold';text-align:center;text-anchor:middle;fill:#e6e6e6;stroke-width:49.9832;stroke-linecap:round;stroke-linejoin:round;stroke-miterlimit:10;paint-order:markers stroke fill"
         aria-label="1" /></g><g
       id="g798-5-3"
       transform="matrix(0.54430072,0,0,0.54430072,-52.729712,-20.602047)"
       style="stroke-width:1.83723"><circle
         style="fill:#031e2d;fill-opacity:1;stroke:none;stroke-width:55.1164;stroke-linecap:round;stroke-linejoin:round;stroke-miterlimit:10;stroke-dasharray:none;stroke-opacity:1;paint-order:markers stroke fill"
         id="path796-83-5-5-8-44"
         cx="-148.99706"
         cy="-355.62637"
         r="18.166237" /><path
         d="m -144.82758,-368.72535 v 26.19795 h -5.62916 v -19.8361 q -0.46463,0.41101 -1.10796,0.78629 -0.62547,0.35741 -1.34028,0.6612 -0.71481,0.28593 -1.48324,0.50037 -0.76843,0.19658 -1.51898,0.28593 v -4.75352 q 2.19805,-0.64333 4.14592,-1.64407 1.94787,-1.00074 3.52046,-2.19805 z"
         id="text798-3-6-0"
         style="font-weight:bold;font-size:36.5985px;font-family:'Segoe UI';-inkscape-font-specification:'Segoe UI Bold';text-align:center;text-anchor:middle;fill:#e6e6e6;stroke-width:55.1167;stroke-linecap:round;stroke-linejoin:round;stroke-miterlimit:10;paint-order:markers stroke fill"
         aria-label="1" /></g><g
       id="g798-5-2-2"
       transform="matrix(0.43249798,0,0,0.43249798,-75.463156,-113.75472)"
       style="stroke-width:2.31215"><circle
         style="fill:#031e2d;fill-opacity:1;stroke:none;stroke-width:69.3643;stroke-linecap:round;stroke-linejoin:round;stroke-miterlimit:10;stroke-dasharray:none;stroke-opacity:1;paint-order:markers stroke fill"
         id="path796-83-5-5-8-5-0"
         cx="-148.99706"
         cy="-355.62637"
         r="18.166237" /><path
         d="m -149.14002,-342.3755 q -9.14962,0 -9.14962,-12.84879 0,-6.66565 2.46611,-10.15037 2.48398,-3.50259 7.18388,-3.50259 8.93518,0 8.93518,13.06323 0,6.50482 -2.44824,9.97167 -2.43037,3.46685 -6.98731,3.46685 z m 0.25019,-22.19499 q -3.66343,0 -3.66343,9.20323 0,8.66713 3.59195,8.66713 3.50259,0 3.50259,-8.93518 0,-8.93518 -3.43111,-8.93518 z"
         id="text798-3-6-3-3"
         style="font-weight:bold;font-size:36.5985px;font-family:'Segoe UI';-inkscape-font-specification:'Segoe UI Bold';text-align:center;text-anchor:middle;fill:#e6e6e6;stroke-width:69.3645;stroke-linecap:round;stroke-linejoin:round;stroke-miterlimit:10;paint-order:markers stroke fill"
         aria-label="0" /></g><g
       id="g798-5-2-4"
       transform="matrix(0.62815275,0,0,0.62815275,-107.12306,-6.2935787)"
       style="stroke-width:1.59198"><circle
         style="fill:#031e2d;fill-opacity:1;stroke:none;stroke-width:47.7589;stroke-linecap:round;stroke-linejoin:round;stroke-miterlimit:10;stroke-dasharray:none;stroke-opacity:1;paint-order:markers stroke fill"
         id="path796-83-5-5-8-5-2"
         cx="-148.99706"
         cy="-355.62637"
         r="18.166237" /><path
         d="m -149.14002,-342.3755 q -9.14962,0 -9.14962,-12.84879 0,-6.66565 2.46611,-10.15037 2.48398,-3.50259 7.18388,-3.50259 8.93518,0 8.93518,13.06323 0,6.50482 -2.44824,9.97167 -2.43037,3.46685 -6.98731,3.46685 z m 0.25019,-22.19499 q -3.66343,0 -3.66343,9.20323 0,8.66713 3.59195,8.66713 3.50259,0 3.50259,-8.93518 0,-8.93518 -3.43111,-8.93518 z"
         id="text798-3-6-3-8"
         style="font-weight:bold;font-size:36.5985px;font-family:'Segoe UI';-inkscape-font-specification:'Segoe UI Bold';text-align:center;text-anchor:middle;fill:#e6e6e6;stroke-width:47.7592;stroke-linecap:round;stroke-linejoin:round;stroke-miterlimit:10;paint-order:markers stroke fill"
         aria-label="0" /></g><g
       id="g798-5-2-0"
       transform="matrix(0.76790614,0,0,0.76790614,-58.300343,77.447729)"
       style="stroke-width:1.30225"><circle
         style="fill:#031e2d;fill-opacity:1;stroke:none;stroke-width:39.0671;stroke-linecap:round;stroke-linejoin:round;stroke-miterlimit:10;stroke-dasharray:none;stroke-opacity:1;paint-order:markers stroke fill"
         id="path796-83-5-5-8-5-3"
         cx="-148.99706"
         cy="-355.62637"
         r="18.166237" /><path
         d="m -149.14002,-342.3755 q -9.14962,0 -9.14962,-12.84879 0,-6.66565 2.46611,-10.15037 2.48398,-3.50259 7.18388,-3.50259 8.93518,0 8.93518,13.06323 0,6.50482 -2.44824,9.97167 -2.43037,3.46685 -6.98731,3.46685 z m 0.25019,-22.19499 q -3.66343,0 -3.66343,9.20323 0,8.66713 3.59195,8.66713 3.50259,0 3.50259,-8.93518 0,-8.93518 -3.43111,-8.93518 z"
         id="text798-3-6-3-6"
         style="font-weight:bold;font-size:36.5985px;font-family:'Segoe UI';-inkscape-font-specification:'Segoe UI Bold';text-align:center;text-anchor:middle;fill:#e6e6e6;stroke-width:39.0673;stroke-linecap:round;stroke-linejoin:round;stroke-miterlimit:10;paint-order:markers stroke fill"
         aria-label="0" /></g><g
       id="g798-5-1"
       transform="matrix(0.89368421,0,0,0.89368421,-84.036305,130.61708)"
       style="stroke-width:1.11897"><circle
         style="fill:#031e2d;fill-opacity:1;stroke:none;stroke-width:33.5688;stroke-linecap:round;stroke-linejoin:round;stroke-miterlimit:10;stroke-dasharray:none;stroke-opacity:1;paint-order:markers stroke fill"
         id="path796-83-5-5-8-4"
         cx="-148.99706"
         cy="-355.62637"
         r="18.166237" /><path
         d="m -144.82758,-368.72535 v 26.19795 h -5.62916 v -19.8361 q -0.46463,0.41101 -1.10796,0.78629 -0.62547,0.35741 -1.34028,0.6612 -0.71481,0.28593 -1.48324,0.50037 -0.76843,0.19658 -1.51898,0.28593 v -4.75352 q 2.19805,-0.64333 4.14592,-1.64407 1.94787,-1.00074 3.52046,-2.19805 z"
         id="text798-3-6-6"
         style="font-weight:bold;font-size:36.5985px;font-family:'Segoe UI';-inkscape-font-specification:'Segoe UI Bold';text-align:center;text-anchor:middle;fill:#e6e6e6;stroke-width:33.5689;stroke-linecap:round;stroke-linejoin:round;stroke-miterlimit:10;paint-order:markers stroke fill"
         aria-label="1" /></g><g
       id="g798-5-2-1"
       transform="matrix(0.51163623,0,0,0.51163623,-41.651916,-63.63204)"
       style="stroke-width:1.95453"><circle
         style="fill:#031e2d;fill-opacity:1;stroke:none;stroke-width:58.6352;stroke-linecap:round;stroke-linejoin:round;stroke-miterlimit:10;stroke-dasharray:none;stroke-opacity:1;paint-order:markers stroke fill"
         id="path796-83-5-5-8-5-25"
         cx="-148.99706"
         cy="-355.62637"
         r="18.166237" /><path
         d="m -149.14002,-342.3755 q -9.14962,0 -9.14962,-12.84879 0,-6.66565 2.46611,-10.15037 2.48398,-3.50259 7.18388,-3.50259 8.93518,0 8.93518,13.06323 0,6.50482 -2.44824,9.97167 -2.43037,3.46685 -6.98731,3.46685 z m 0.25019,-22.19499 q -3.66343,0 -3.66343,9.20323 0,8.66713 3.59195,8.66713 3.50259,0 3.50259,-8.93518 0,-8.93518 -3.43111,-8.93518 z"
         id="text798-3-6-3-7"
         style="font-weight:bold;font-size:36.5985px;font-family:'Segoe UI';-inkscape-font-specification:'Segoe UI Bold';text-align:center;text-anchor:middle;fill:#e6e6e6;stroke-width:58.6356;stroke-linecap:round;stroke-linejoin:round;stroke-miterlimit:10;paint-order:markers stroke fill"
         aria-label="0" /></g><g
       id="g798-5-8"
       transform="matrix(0.48839935,0,0,0.48839935,-110.67546,-89.745259)"
       style="stroke-width:2.04751"><circle
         style="fill:#031e2d;fill-opacity:1;stroke:none;stroke-width:61.4249;stroke-linecap:round;stroke-linejoin:round;stroke-miterlimit:10;stroke-dasharray:none;stroke-opacity:1;paint-order:markers stroke fill"
         id="path796-83-5-5-8-7"
         cx="-148.99706"
         cy="-355.62637"
         r="18.166237" /><path
         d="m -144.82758,-368.72535 v 26.19795 h -5.62916 v -19.8361 q -0.46463,0.41101 -1.10796,0.78629 -0.62547,0.35741 -1.34028,0.6612 -0.71481,0.28593 -1.48324,0.50037 -0.76843,0.19658 -1.51898,0.28593 v -4.75352 q 2.19805,-0.64333 4.14592,-1.64407 1.94787,-1.00074 3.52046,-2.19805 z"
         id="text798-3-6-30"
         style="font-weight:bold;font-size:36.5985px;font-family:'Segoe UI';-inkscape-font-specification:'Segoe UI Bold';text-align:center;text-anchor:middle;fill:#e6e6e6;stroke-width:61.4252;stroke-linecap:round;stroke-linejoin:round;stroke-miterlimit:10;paint-order:markers stroke fill"
         aria-label="1" /></g></g></svg>
